<svg width="257" height="65" viewBox="0 0 257 65" fill="none" xmlns="http://www.w3.org/2000/svg">
<rect width="63" height="61" rx="20" fill="#6998FF"/>
<rect x="5" y="4" width="62" height="61" rx="20" fill="#2563EB"/>
<path d="M34.25 44H29.975L22.825 33.175V44H18.55V26.45H22.825L29.975 37.325V26.45H34.25V44ZM43.9238 26.45C45.7738 26.45 47.3905 26.8167 48.7738 27.55C50.1572 28.2833 51.2238 29.3167 51.9738 30.65C52.7405 31.9667 53.1238 33.4917 53.1238 35.225C53.1238 36.9417 52.7405 38.4667 51.9738 39.8C51.2238 41.1333 50.1488 42.1667 48.7488 42.9C47.3655 43.6333 45.7572 44 43.9238 44H37.3488V26.45H43.9238ZM43.6488 40.3C45.2655 40.3 46.5238 39.8583 47.4238 38.975C48.3238 38.0917 48.7738 36.8417 48.7738 35.225C48.7738 33.6083 48.3238 32.35 47.4238 31.45C46.5238 30.55 45.2655 30.1 43.6488 30.1H41.6238V40.3H43.6488Z" fill="white"/>
<path d="M100.98 43H96.78L87.27 28.63V43H83.07V22.03H87.27L96.78 36.43V22.03H100.98V43ZM112.511 43.27C110.911 43.27 109.471 42.92 108.191 42.22C106.911 41.5 105.901 40.49 105.161 39.19C104.441 37.89 104.081 36.39 104.081 34.69C104.081 32.99 104.451 31.49 105.191 30.19C105.951 28.89 106.981 27.89 108.281 27.19C109.581 26.47 111.031 26.11 112.631 26.11C114.231 26.11 115.681 26.47 116.981 27.19C118.281 27.89 119.301 28.89 120.041 30.19C120.801 31.49 121.181 32.99 121.181 34.69C121.181 36.39 120.791 37.89 120.011 39.19C119.251 40.49 118.211 41.5 116.891 42.22C115.591 42.92 114.131 43.27 112.511 43.27ZM112.511 39.61C113.271 39.61 113.981 39.43 114.641 39.07C115.321 38.69 115.861 38.13 116.261 37.39C116.661 36.65 116.861 35.75 116.861 34.69C116.861 33.11 116.441 31.9 115.601 31.06C114.781 30.2 113.771 29.77 112.571 29.77C111.371 29.77 110.361 30.2 109.541 31.06C108.741 31.9 108.341 33.11 108.341 34.69C108.341 36.27 108.731 37.49 109.511 38.35C110.311 39.19 111.311 39.61 112.511 39.61ZM129.151 29.83V37.87C129.151 38.43 129.281 38.84 129.541 39.1C129.821 39.34 130.281 39.46 130.921 39.46H132.871V43H130.231C126.691 43 124.921 41.28 124.921 37.84V29.83H122.941V26.38H124.921V22.27H129.151V26.38H132.871V29.83H129.151ZM138.022 24.4C137.282 24.4 136.662 24.17 136.162 23.71C135.682 23.23 135.442 22.64 135.442 21.94C135.442 21.24 135.682 20.66 136.162 20.2C136.662 19.72 137.282 19.48 138.022 19.48C138.762 19.48 139.372 19.72 139.852 20.2C140.352 20.66 140.602 21.24 140.602 21.94C140.602 22.64 140.352 23.23 139.852 23.71C139.372 24.17 138.762 24.4 138.022 24.4ZM140.092 26.38V43H135.892V26.38H140.092ZM151.622 43.27C150.022 43.27 148.582 42.92 147.302 42.22C146.022 41.5 145.012 40.49 144.272 39.19C143.552 37.89 143.192 36.39 143.192 34.69C143.192 32.99 143.562 31.49 144.302 30.19C145.062 28.89 146.092 27.89 147.392 27.19C148.692 26.47 150.142 26.11 151.742 26.11C153.342 26.11 154.792 26.47 156.092 27.19C157.392 27.89 158.412 28.89 159.152 30.19C159.912 31.49 160.292 32.99 160.292 34.69C160.292 36.39 159.902 37.89 159.122 39.19C158.362 40.49 157.322 41.5 156.002 42.22C154.702 42.92 153.242 43.27 151.622 43.27ZM151.622 39.61C152.382 39.61 153.092 39.43 153.752 39.07C154.432 38.69 154.972 38.13 155.372 37.39C155.772 36.65 155.972 35.75 155.972 34.69C155.972 33.11 155.552 31.9 154.712 31.06C153.892 30.2 152.882 29.77 151.682 29.77C150.482 29.77 149.472 30.2 148.652 31.06C147.852 31.9 147.452 33.11 147.452 34.69C147.452 36.27 147.842 37.49 148.622 38.35C149.422 39.19 150.422 39.61 151.622 39.61ZM172.583 26.14C174.563 26.14 176.163 26.77 177.383 28.03C178.603 29.27 179.213 31.01 179.213 33.25V43H175.013V33.82C175.013 32.5 174.683 31.49 174.023 30.79C173.363 30.07 172.463 29.71 171.323 29.71C170.163 29.71 169.243 30.07 168.563 30.79C167.903 31.49 167.573 32.5 167.573 33.82V43H163.373V26.38H167.573V28.45C168.133 27.73 168.843 27.17 169.703 26.77C170.583 26.35 171.543 26.14 172.583 26.14ZM190.527 22.06C192.727 22.06 194.657 22.49 196.317 23.35C197.997 24.21 199.287 25.44 200.187 27.04C201.107 28.62 201.567 30.46 201.567 32.56C201.567 34.66 201.107 36.5 200.187 38.08C199.287 39.64 197.997 40.85 196.317 41.71C194.657 42.57 192.727 43 190.527 43H183.207V22.06H190.527ZM190.377 39.43C192.577 39.43 194.277 38.83 195.477 37.63C196.677 36.43 197.277 34.74 197.277 32.56C197.277 30.38 196.677 28.68 195.477 27.46C194.277 26.22 192.577 25.6 190.377 25.6H187.407V39.43H190.377ZM212.091 43.27C210.491 43.27 209.051 42.92 207.771 42.22C206.491 41.5 205.481 40.49 204.741 39.19C204.021 37.89 203.661 36.39 203.661 34.69C203.661 32.99 204.031 31.49 204.771 30.19C205.531 28.89 206.561 27.89 207.861 27.19C209.161 26.47 210.611 26.11 212.211 26.11C213.811 26.11 215.261 26.47 216.561 27.19C217.861 27.89 218.881 28.89 219.621 30.19C220.381 31.49 220.761 32.99 220.761 34.69C220.761 36.39 220.371 37.89 219.591 39.19C218.831 40.49 217.791 41.5 216.471 42.22C215.171 42.92 213.711 43.27 212.091 43.27ZM212.091 39.61C212.851 39.61 213.561 39.43 214.221 39.07C214.901 38.69 215.441 38.13 215.841 37.39C216.241 36.65 216.441 35.75 216.441 34.69C216.441 33.11 216.021 31.9 215.181 31.06C214.361 30.2 213.351 29.77 212.151 29.77C210.951 29.77 209.941 30.2 209.121 31.06C208.321 31.9 207.921 33.11 207.921 34.69C207.921 36.27 208.311 37.49 209.091 38.35C209.891 39.19 210.891 39.61 212.091 39.61ZM222.761 34.69C222.761 32.97 223.111 31.47 223.811 30.19C224.511 28.89 225.481 27.89 226.721 27.19C227.961 26.47 229.381 26.11 230.981 26.11C233.041 26.11 234.741 26.63 236.081 27.67C237.441 28.69 238.351 30.13 238.811 31.99H234.281C234.041 31.27 233.631 30.71 233.051 30.31C232.491 29.89 231.791 29.68 230.951 29.68C229.751 29.68 228.801 30.12 228.101 31C227.401 31.86 227.051 33.09 227.051 34.69C227.051 36.27 227.401 37.5 228.101 38.38C228.801 39.24 229.751 39.67 230.951 39.67C232.651 39.67 233.761 38.91 234.281 37.39H238.811C238.351 39.19 237.441 40.62 236.081 41.68C234.721 42.74 233.021 43.27 230.981 43.27C229.381 43.27 227.961 42.92 226.721 42.22C225.481 41.5 224.511 40.5 223.811 39.22C223.111 37.92 222.761 36.41 222.761 34.69ZM248.248 43.27C246.888 43.27 245.668 43.03 244.588 42.55C243.508 42.05 242.648 41.38 242.008 40.54C241.388 39.7 241.048 38.77 240.988 37.75H245.218C245.298 38.39 245.608 38.92 246.148 39.34C246.708 39.76 247.398 39.97 248.218 39.97C249.018 39.97 249.638 39.81 250.078 39.49C250.538 39.17 250.768 38.76 250.768 38.26C250.768 37.72 250.488 37.32 249.928 37.06C249.388 36.78 248.518 36.48 247.318 36.16C246.078 35.86 245.058 35.55 244.258 35.23C243.478 34.91 242.798 34.42 242.218 33.76C241.658 33.1 241.378 32.21 241.378 31.09C241.378 30.17 241.638 29.33 242.158 28.57C242.698 27.81 243.458 27.21 244.438 26.77C245.438 26.33 246.608 26.11 247.948 26.11C249.928 26.11 251.508 26.61 252.688 27.61C253.868 28.59 254.518 29.92 254.638 31.6H250.618C250.558 30.94 250.278 30.42 249.778 30.04C249.298 29.64 248.648 29.44 247.828 29.44C247.068 29.44 246.478 29.58 246.058 29.86C245.658 30.14 245.458 30.53 245.458 31.03C245.458 31.59 245.738 32.02 246.298 32.32C246.858 32.6 247.728 32.89 248.908 33.19C250.108 33.49 251.098 33.8 251.878 34.12C252.658 34.44 253.328 34.94 253.888 35.62C254.468 36.28 254.768 37.16 254.788 38.26C254.788 39.22 254.518 40.08 253.978 40.84C253.458 41.6 252.698 42.2 251.698 42.64C250.718 43.06 249.568 43.27 248.248 43.27Z" fill="#5A8EFF"/>
</svg>
